<svg width="200" height="200" viewBox="0 0 200 200" fill="none" xmlns="http://www.w3.org/2000/svg">
<path d="M109.5 53.3333C109.5 56.6407 106.103 59.5 101.667 59.5C97.2305 59.5 93.8333 56.6407 93.8333 53.3333C93.8333 50.0259 97.2305 47.1666 101.667 47.1666C106.103 47.1666 109.5 50.0259 109.5 53.3333Z" fill="#FFFAD8" stroke="black"/>
<rect x="77.1667" y="0.5" width="49" height="49" fill="#A29C73" stroke="black"/>
<rect x="87.1667" y="7.16663" width="29" height="32.3333" fill="#FFFAD8" stroke="black"/>
<rect x="72.7222" y="0.5" width="7.88889" height="26.7778" fill="#FFFAD8" stroke="black"/>
<circle cx="76.6667" cy="22.2223" r="8.38889" fill="#FFFAD8" stroke="black"/>
<rect x="122.722" y="0.5" width="7.88889" height="26.7778" fill="#FFFAD8" stroke="black"/>
<circle cx="126.667" cy="22.2223" r="8.38889" fill="#FFFAD8" stroke="black"/>
<path d="M97.2777 21.1111C97.2777 22.2597 96.9858 23.2758 96.5401 23.9888C96.0901 24.7088 95.5324 25.0555 94.9999 25.0555C94.4675 25.0555 93.9098 24.7088 93.4598 23.9888C93.0141 23.2758 92.7222 22.2597 92.7222 21.1111C92.7222 19.9625 93.0141 18.9464 93.4598 18.2334C93.9098 17.5133 94.4675 17.1666 94.9999 17.1666C95.5324 17.1666 96.0901 17.5133 96.5401 18.2334C96.9858 18.9464 97.2777 19.9625 97.2777 21.1111Z" fill="black" stroke="black"/>
<path d="M111.722 21.1111C111.722 22.2597 111.43 23.2758 110.985 23.9888C110.535 24.7088 109.977 25.0555 109.445 25.0555C108.912 25.0555 108.354 24.7088 107.904 23.9888C107.459 23.2758 107.167 22.2597 107.167 21.1111C107.167 19.9625 107.459 18.9464 107.904 18.2334C108.354 17.5133 108.912 17.1666 109.445 17.1666C109.977 17.1666 110.535 17.5133 110.985 18.2334C111.43 18.9464 111.722 19.9625 111.722 21.1111Z" fill="black" stroke="black"/>
<path d="M125.257 131.237L118.267 150.91L111.277 131.237H125.257Z" fill="#A29C73" stroke="black"/>
<rect x="108.278" y="180.5" width="19" height="6.77778" fill="#FFFAD8" stroke="black"/>
<path d="M110.788 180.056L117.778 160.382L124.768 180.056H110.788Z" fill="#A29C73" stroke="black"/>
<circle cx="117.791" cy="155.737" r="7.83333" fill="#FFFAD8" stroke="black"/>
<rect x="109.874" y="116.062" width="16.7811" height="15.6667" transform="rotate(0.735745 109.874 116.062)" fill="#FFFAD8" stroke="black"/>
<path d="M93.6374 130.478L86.6477 150.151L79.658 130.478H93.6374Z" fill="#A29C73" stroke="black"/>
<rect x="77.1667" y="180.5" width="19" height="6.77778" fill="#FFFAD8" stroke="black"/>
<path d="M79.677 180.056L86.6667 160.382L93.6565 180.056H79.677Z" fill="#A29C73" stroke="black"/>
<circle cx="86.172" cy="154.978" r="7.83333" fill="#FFFAD8" stroke="black"/>
<rect x="78.0535" y="117.192" width="16.7811" height="15.6667" fill="#FFFAD8" stroke="black"/>
<path d="M132.833 67.2222C132.833 68.8063 132.04 70.3649 130.5 71.8341C128.958 73.3046 126.701 74.6518 123.871 75.7938C118.214 78.0767 110.363 79.5 101.667 79.5C92.9699 79.5 85.1197 78.0767 79.462 75.7938C76.6319 74.6518 74.375 73.3046 72.8337 71.8341C71.2936 70.3649 70.5 68.8063 70.5 67.2222C70.5 65.6381 71.2936 64.0796 72.8337 62.6103C74.375 61.1399 76.6319 59.7926 79.462 58.6507C85.1197 56.3678 92.9699 54.9445 101.667 54.9445C110.363 54.9445 118.214 56.3678 123.871 58.6507C126.701 59.7926 128.958 61.1399 130.5 62.6103C132.04 64.0796 132.833 65.6381 132.833 67.2222Z" fill="#A29C73" stroke="black"/>
<mask id="path-21-inside-1_100_1609" fill="white">
<path d="M70 66.6666H133.333V117.778H70V66.6666Z"/>
</mask>
<path d="M70 66.6666H133.333V117.778H70V66.6666Z" fill="#A29C73"/>
<path d="M133.333 117.778V118.778H134.333V117.778H133.333ZM70 117.778H69V118.778H70V117.778ZM132.333 66.6666V117.778H134.333V66.6666H132.333ZM133.333 116.778H70V118.778H133.333V116.778ZM71 117.778V66.6666H69V117.778H71Z" fill="black" mask="url(#path-21-inside-1_100_1609)"/>
<path d="M125.536 79.5445L142.942 101.567L140.375 73.6136L125.536 79.5445Z" fill="#A29C73" stroke="black"/>
<path d="M155.858 137.704L143.267 105.125L139.951 139.894L155.858 137.704Z" fill="#A29C73" stroke="black"/>
<path d="M121.221 75.4629C123.935 80.657 130.346 82.6676 135.54 79.9536C140.734 77.2397 142.744 70.829 140.031 65.6349C137.317 60.4409 130.906 58.4303 125.712 61.1442C120.518 63.8582 118.507 70.2689 121.221 75.4629Z" fill="#FFFAD8" stroke="black"/>
<circle cx="5.55556" cy="5.55556" r="5.05556" transform="matrix(-0.990649 0.136438 0.136438 0.990649 147.716 96.7089)" fill="#FFFAD8" stroke="black"/>
<path d="M65.3582 68.7039L52.4013 93.606L76.8485 79.81L65.3582 68.7039Z" fill="#A29C73" stroke="black"/>
<path d="M16.7482 86.4923L50.8187 94.1785L23.7875 72.0607L16.7482 86.4923Z" fill="#A29C73" stroke="black"/>
<circle cx="11.1111" cy="11.1111" r="10.6111" transform="matrix(-0.719026 -0.694983 -0.694983 0.719026 91.6023 69.0366)" fill="#FFFAD8" stroke="black"/>
<circle cx="5.55556" cy="5.55556" r="5.05556" transform="matrix(-0.719026 -0.694983 -0.694983 0.719026 59.0361 94.7355)" fill="#FFFAD8" stroke="black"/>
<path d="M107.218 196.532C99.1622 196.491 91.1889 196.013 83.7554 195.128C76.3201 194.243 69.5827 192.968 63.9251 191.383C58.2554 189.794 53.8342 187.938 50.8664 185.951C47.8634 183.94 46.6302 181.992 46.6332 180.279" stroke="white" stroke-width="2"/>
<path d="M56.5699 180.608L47.2467 171.796L37.9236 180.608H56.5699Z" fill="white" stroke="white"/>
</svg>
